<mxfile host="app.diagrams.net" modified="2022-04-07T13:29:27.299Z" agent="5.0 (Windows NT 10.0; Win64; x64) AppleWebKit/537.36 (KHTML, like Gecko) Chrome/99.0.4844.84 Safari/537.36" etag="G_7fZFRZx-LIfZsSlh61" version="17.4.0" type="github">
  <diagram id="8I2CmzhelA5MCaDlNnXx" name="Page-1">
    <mxGraphModel dx="1504" dy="1772" grid="1" gridSize="10" guides="1" tooltips="1" connect="1" arrows="1" fold="1" page="1" pageScale="1" pageWidth="850" pageHeight="1100" math="0" shadow="0">
      <root>
        <mxCell id="0" />
        <mxCell id="1" parent="0" />
        <mxCell id="IUDxcDOe4H3WORA1nVKD-45" value="Student" style="swimlane;fontStyle=1;align=center;verticalAlign=top;childLayout=stackLayout;horizontal=1;startSize=26;horizontalStack=0;resizeParent=1;resizeParentMax=0;resizeLast=0;collapsible=1;marginBottom=0;" parent="1" vertex="1">
          <mxGeometry x="558.5" y="-16" width="383" height="392" as="geometry" />
        </mxCell>
        <mxCell id="IUDxcDOe4H3WORA1nVKD-46" value="-name: String" style="text;strokeColor=none;fillColor=none;align=left;verticalAlign=top;spacingLeft=4;spacingRight=4;overflow=hidden;rotatable=0;points=[[0,0.5],[1,0.5]];portConstraint=eastwest;" parent="IUDxcDOe4H3WORA1nVKD-45" vertex="1">
          <mxGeometry y="26" width="383" height="26" as="geometry" />
        </mxCell>
        <mxCell id="IUDxcDOe4H3WORA1nVKD-47" value="-studentNumber: int" style="text;strokeColor=none;fillColor=none;align=left;verticalAlign=top;spacingLeft=4;spacingRight=4;overflow=hidden;rotatable=0;points=[[0,0.5],[1,0.5]];portConstraint=eastwest;" parent="IUDxcDOe4H3WORA1nVKD-45" vertex="1">
          <mxGeometry y="52" width="383" height="26" as="geometry" />
        </mxCell>
        <mxCell id="OVTsEQFIvY51fF4gTyis-31" value="+studentList: Arraylist&lt;Student&gt;" style="text;strokeColor=none;fillColor=none;align=left;verticalAlign=top;spacingLeft=4;spacingRight=4;overflow=hidden;rotatable=0;points=[[0,0.5],[1,0.5]];portConstraint=eastwest;fontStyle=4" parent="IUDxcDOe4H3WORA1nVKD-45" vertex="1">
          <mxGeometry y="78" width="383" height="26" as="geometry" />
        </mxCell>
        <mxCell id="IUDxcDOe4H3WORA1nVKD-92" value="+behaaldeExamens: Arraylist&lt;Exam&gt;" style="text;strokeColor=none;fillColor=none;align=left;verticalAlign=top;spacingLeft=4;spacingRight=4;overflow=hidden;rotatable=0;points=[[0,0.5],[1,0.5]];portConstraint=eastwest;fontStyle=4" parent="IUDxcDOe4H3WORA1nVKD-45" vertex="1">
          <mxGeometry y="104" width="383" height="26" as="geometry" />
        </mxCell>
        <mxCell id="IUDxcDOe4H3WORA1nVKD-48" value="" style="line;strokeWidth=1;fillColor=none;align=left;verticalAlign=middle;spacingTop=-1;spacingLeft=3;spacingRight=3;rotatable=0;labelPosition=right;points=[];portConstraint=eastwest;" parent="IUDxcDOe4H3WORA1nVKD-45" vertex="1">
          <mxGeometry y="130" width="383" height="8" as="geometry" />
        </mxCell>
        <mxCell id="IUDxcDOe4H3WORA1nVKD-49" value="+Student(naam: String, studentNummer:Â  int)" style="text;strokeColor=none;fillColor=none;align=left;verticalAlign=top;spacingLeft=4;spacingRight=4;overflow=hidden;rotatable=0;points=[[0,0.5],[1,0.5]];portConstraint=eastwest;" parent="IUDxcDOe4H3WORA1nVKD-45" vertex="1">
          <mxGeometry y="138" width="383" height="26" as="geometry" />
        </mxCell>
        <mxCell id="OVTsEQFIvY51fF4gTyis-33" value="+getName(): String" style="text;strokeColor=none;fillColor=none;align=left;verticalAlign=middle;spacingLeft=4;spacingRight=4;overflow=hidden;points=[[0,0.5],[1,0.5]];portConstraint=eastwest;rotatable=0;" parent="IUDxcDOe4H3WORA1nVKD-45" vertex="1">
          <mxGeometry y="164" width="383" height="30" as="geometry" />
        </mxCell>
        <mxCell id="OVTsEQFIvY51fF4gTyis-32" value="+getStudentNumber(): int" style="text;strokeColor=none;fillColor=none;align=left;verticalAlign=middle;spacingLeft=4;spacingRight=4;overflow=hidden;points=[[0,0.5],[1,0.5]];portConstraint=eastwest;rotatable=0;" parent="IUDxcDOe4H3WORA1nVKD-45" vertex="1">
          <mxGeometry y="194" width="383" height="30" as="geometry" />
        </mxCell>
        <mxCell id="IUDxcDOe4H3WORA1nVKD-62" value="+newStudent(scanner : Scanner)" style="text;strokeColor=none;fillColor=none;align=left;verticalAlign=top;spacingLeft=4;spacingRight=4;overflow=hidden;rotatable=0;points=[[0,0.5],[1,0.5]];portConstraint=eastwest;fontStyle=4" parent="IUDxcDOe4H3WORA1nVKD-45" vertex="1">
          <mxGeometry y="224" width="383" height="26" as="geometry" />
        </mxCell>
        <mxCell id="t63DMM5R3EJgXKr6WPt3-22" value="+ checkStudentNumber (nummer: int, naam: String, scanner: Scanner)" style="text;strokeColor=none;fillColor=none;align=left;verticalAlign=middle;spacingLeft=4;spacingRight=4;overflow=hidden;points=[[0,0.5],[1,0.5]];portConstraint=eastwest;rotatable=0;fontStyle=4" parent="IUDxcDOe4H3WORA1nVKD-45" vertex="1">
          <mxGeometry y="250" width="383" height="30" as="geometry" />
        </mxCell>
        <mxCell id="t63DMM5R3EJgXKr6WPt3-23" value="+ studentNumberToInt(scanner: Scanner): int" style="text;strokeColor=none;fillColor=none;align=left;verticalAlign=middle;spacingLeft=4;spacingRight=4;overflow=hidden;points=[[0,0.5],[1,0.5]];portConstraint=eastwest;rotatable=0;fontStyle=4" parent="IUDxcDOe4H3WORA1nVKD-45" vertex="1">
          <mxGeometry y="280" width="383" height="30" as="geometry" />
        </mxCell>
        <mxCell id="t63DMM5R3EJgXKr6WPt3-24" value="+printAllStudents(scanner: Scanner)" style="text;strokeColor=none;fillColor=none;align=left;verticalAlign=middle;spacingLeft=4;spacingRight=4;overflow=hidden;points=[[0,0.5],[1,0.5]];portConstraint=eastwest;rotatable=0;fontStyle=4" parent="IUDxcDOe4H3WORA1nVKD-45" vertex="1">
          <mxGeometry y="310" width="383" height="30" as="geometry" />
        </mxCell>
        <mxCell id="IUDxcDOe4H3WORA1nVKD-63" value="+deleteStudent(scanner : Scanner)" style="text;strokeColor=none;fillColor=none;align=left;verticalAlign=top;spacingLeft=4;spacingRight=4;overflow=hidden;rotatable=0;points=[[0,0.5],[1,0.5]];portConstraint=eastwest;fontStyle=4" parent="IUDxcDOe4H3WORA1nVKD-45" vertex="1">
          <mxGeometry y="340" width="383" height="26" as="geometry" />
        </mxCell>
        <mxCell id="IUDxcDOe4H3WORA1nVKD-50" value="+studenMostPassed()" style="text;strokeColor=none;fillColor=none;align=left;verticalAlign=top;spacingLeft=4;spacingRight=4;overflow=hidden;rotatable=0;points=[[0,0.5],[1,0.5]];portConstraint=eastwest;fontStyle=4" parent="IUDxcDOe4H3WORA1nVKD-45" vertex="1">
          <mxGeometry y="366" width="383" height="26" as="geometry" />
        </mxCell>
        <mxCell id="IUDxcDOe4H3WORA1nVKD-51" value="Exam" style="swimlane;fontStyle=1;align=center;verticalAlign=top;childLayout=stackLayout;horizontal=1;startSize=26;horizontalStack=0;resizeParent=1;resizeParentMax=0;resizeLast=0;collapsible=1;marginBottom=0;" parent="1" vertex="1">
          <mxGeometry x="580" y="470" width="340" height="408" as="geometry" />
        </mxCell>
        <mxCell id="IUDxcDOe4H3WORA1nVKD-52" value="-name: String" style="text;strokeColor=none;fillColor=none;align=left;verticalAlign=top;spacingLeft=4;spacingRight=4;overflow=hidden;rotatable=0;points=[[0,0.5],[1,0.5]];portConstraint=eastwest;" parent="IUDxcDOe4H3WORA1nVKD-51" vertex="1">
          <mxGeometry y="26" width="340" height="26" as="geometry" />
        </mxCell>
        <mxCell id="IUDxcDOe4H3WORA1nVKD-53" value="-category: String" style="text;strokeColor=none;fillColor=none;align=left;verticalAlign=top;spacingLeft=4;spacingRight=4;overflow=hidden;rotatable=0;points=[[0,0.5],[1,0.5]];portConstraint=eastwest;" parent="IUDxcDOe4H3WORA1nVKD-51" vertex="1">
          <mxGeometry y="52" width="340" height="26" as="geometry" />
        </mxCell>
        <mxCell id="IUDxcDOe4H3WORA1nVKD-91" value="+examList: Arraylist&lt;Exam&gt;" style="text;strokeColor=none;fillColor=none;align=left;verticalAlign=top;spacingLeft=4;spacingRight=4;overflow=hidden;rotatable=0;points=[[0,0.5],[1,0.5]];portConstraint=eastwest;fontStyle=4" parent="IUDxcDOe4H3WORA1nVKD-51" vertex="1">
          <mxGeometry y="78" width="340" height="26" as="geometry" />
        </mxCell>
        <mxCell id="OVTsEQFIvY51fF4gTyis-37" value="+questionList: ArrayList&lt;Question&gt;" style="text;strokeColor=none;fillColor=none;align=left;verticalAlign=middle;spacingLeft=4;spacingRight=4;overflow=hidden;points=[[0,0.5],[1,0.5]];portConstraint=eastwest;rotatable=0;" parent="IUDxcDOe4H3WORA1nVKD-51" vertex="1">
          <mxGeometry y="104" width="340" height="30" as="geometry" />
        </mxCell>
        <mxCell id="IUDxcDOe4H3WORA1nVKD-54" value="" style="line;strokeWidth=1;fillColor=none;align=left;verticalAlign=middle;spacingTop=-1;spacingLeft=3;spacingRight=3;rotatable=0;labelPosition=right;points=[];portConstraint=eastwest;" parent="IUDxcDOe4H3WORA1nVKD-51" vertex="1">
          <mxGeometry y="134" width="340" height="8" as="geometry" />
        </mxCell>
        <mxCell id="OVTsEQFIvY51fF4gTyis-40" value="+Exam(name: String, category: String)" style="text;strokeColor=none;fillColor=none;align=left;verticalAlign=middle;spacingLeft=4;spacingRight=4;overflow=hidden;points=[[0,0.5],[1,0.5]];portConstraint=eastwest;rotatable=0;" parent="IUDxcDOe4H3WORA1nVKD-51" vertex="1">
          <mxGeometry y="142" width="340" height="30" as="geometry" />
        </mxCell>
        <mxCell id="OVTsEQFIvY51fF4gTyis-41" value="+getName():String" style="text;strokeColor=none;fillColor=none;align=left;verticalAlign=middle;spacingLeft=4;spacingRight=4;overflow=hidden;points=[[0,0.5],[1,0.5]];portConstraint=eastwest;rotatable=0;" parent="IUDxcDOe4H3WORA1nVKD-51" vertex="1">
          <mxGeometry y="172" width="340" height="30" as="geometry" />
        </mxCell>
        <mxCell id="OVTsEQFIvY51fF4gTyis-42" value="+getCategory():String" style="text;strokeColor=none;fillColor=none;align=left;verticalAlign=middle;spacingLeft=4;spacingRight=4;overflow=hidden;points=[[0,0.5],[1,0.5]];portConstraint=eastwest;rotatable=0;" parent="IUDxcDOe4H3WORA1nVKD-51" vertex="1">
          <mxGeometry y="202" width="340" height="30" as="geometry" />
        </mxCell>
        <mxCell id="wdkMRcKlB4A3LhLKudHC-2" value="+getExam(getal: int): Exam" style="text;strokeColor=none;fillColor=none;align=left;verticalAlign=middle;spacingLeft=4;spacingRight=4;overflow=hidden;points=[[0,0.5],[1,0.5]];portConstraint=eastwest;rotatable=0;fontStyle=4" parent="IUDxcDOe4H3WORA1nVKD-51" vertex="1">
          <mxGeometry y="232" width="340" height="30" as="geometry" />
        </mxCell>
        <mxCell id="wdkMRcKlB4A3LhLKudHC-3" value="+addQuestion(question: Question)" style="text;strokeColor=none;fillColor=none;align=left;verticalAlign=middle;spacingLeft=4;spacingRight=4;overflow=hidden;points=[[0,0.5],[1,0.5]];portConstraint=eastwest;rotatable=0;" parent="IUDxcDOe4H3WORA1nVKD-51" vertex="1">
          <mxGeometry y="262" width="340" height="30" as="geometry" />
        </mxCell>
        <mxCell id="wdkMRcKlB4A3LhLKudHC-4" value="+getQuestionList(): ArrayList&lt;Question&gt;" style="text;strokeColor=none;fillColor=none;align=left;verticalAlign=middle;spacingLeft=4;spacingRight=4;overflow=hidden;points=[[0,0.5],[1,0.5]];portConstraint=eastwest;rotatable=0;" parent="IUDxcDOe4H3WORA1nVKD-51" vertex="1">
          <mxGeometry y="292" width="340" height="30" as="geometry" />
        </mxCell>
        <mxCell id="IUDxcDOe4H3WORA1nVKD-55" value="+startExam(student: Student, scanner : Scanner)" style="text;strokeColor=none;fillColor=none;align=left;verticalAlign=top;spacingLeft=4;spacingRight=4;overflow=hidden;rotatable=0;points=[[0,0.5],[1,0.5]];portConstraint=eastwest;" parent="IUDxcDOe4H3WORA1nVKD-51" vertex="1">
          <mxGeometry y="322" width="340" height="26" as="geometry" />
        </mxCell>
        <mxCell id="t63DMM5R3EJgXKr6WPt3-9" value="+examResult(student: Student, correct: int, gehaald: boolean)" style="text;strokeColor=none;fillColor=none;align=left;verticalAlign=middle;spacingLeft=4;spacingRight=4;overflow=hidden;points=[[0,0.5],[1,0.5]];portConstraint=eastwest;rotatable=0;" parent="IUDxcDOe4H3WORA1nVKD-51" vertex="1">
          <mxGeometry y="348" width="340" height="30" as="geometry" />
        </mxCell>
        <mxCell id="t63DMM5R3EJgXKr6WPt3-10" value="+printAllExams(scanner: Scanner)" style="text;strokeColor=none;fillColor=none;align=left;verticalAlign=middle;spacingLeft=4;spacingRight=4;overflow=hidden;points=[[0,0.5],[1,0.5]];portConstraint=eastwest;rotatable=0;fontStyle=4" parent="IUDxcDOe4H3WORA1nVKD-51" vertex="1">
          <mxGeometry y="378" width="340" height="30" as="geometry" />
        </mxCell>
        <mxCell id="IUDxcDOe4H3WORA1nVKD-57" value="App" style="swimlane;fontStyle=1;align=center;verticalAlign=top;childLayout=stackLayout;horizontal=1;startSize=26;horizontalStack=0;resizeParent=1;resizeParentMax=0;resizeLast=0;collapsible=1;marginBottom=0;" parent="1" vertex="1">
          <mxGeometry y="-20" width="390" height="400" as="geometry" />
        </mxCell>
        <mxCell id="g0ov7ipaIOcTevVOXK-h-1" value="+scannakin : Scanner" style="text;strokeColor=none;fillColor=none;align=left;verticalAlign=middle;spacingLeft=4;spacingRight=4;overflow=hidden;points=[[0,0.5],[1,0.5]];portConstraint=eastwest;rotatable=0;" parent="IUDxcDOe4H3WORA1nVKD-57" vertex="1">
          <mxGeometry y="26" width="390" height="30" as="geometry" />
        </mxCell>
        <mxCell id="IUDxcDOe4H3WORA1nVKD-58" value="" style="line;strokeWidth=1;fillColor=none;align=left;verticalAlign=middle;spacingTop=-1;spacingLeft=3;spacingRight=3;rotatable=0;labelPosition=right;points=[];portConstraint=eastwest;" parent="IUDxcDOe4H3WORA1nVKD-57" vertex="1">
          <mxGeometry y="56" width="390" height="8" as="geometry" />
        </mxCell>
        <mxCell id="IUDxcDOe4H3WORA1nVKD-59" value="+mainMenu(james: Scanner)" style="text;strokeColor=none;fillColor=none;align=left;verticalAlign=top;spacingLeft=4;spacingRight=4;overflow=hidden;rotatable=0;points=[[0,0.5],[1,0.5]];portConstraint=eastwest;fontStyle=4" parent="IUDxcDOe4H3WORA1nVKD-57" vertex="1">
          <mxGeometry y="64" width="390" height="26" as="geometry" />
        </mxCell>
        <mxCell id="OVTsEQFIvY51fF4gTyis-3" value="-printMainMenu()" style="text;strokeColor=none;fillColor=none;align=left;verticalAlign=top;spacingLeft=4;spacingRight=4;overflow=hidden;rotatable=0;points=[[0,0.5],[1,0.5]];portConstraint=eastwest;fontStyle=4" parent="IUDxcDOe4H3WORA1nVKD-57" vertex="1">
          <mxGeometry y="90" width="390" height="26" as="geometry" />
        </mxCell>
        <mxCell id="OVTsEQFIvY51fF4gTyis-6" value="+clearScreen()" style="text;strokeColor=none;fillColor=none;align=left;verticalAlign=middle;spacingLeft=4;spacingRight=4;overflow=hidden;points=[[0,0.5],[1,0.5]];portConstraint=eastwest;rotatable=0;fontStyle=4" parent="IUDxcDOe4H3WORA1nVKD-57" vertex="1">
          <mxGeometry y="116" width="390" height="30" as="geometry" />
        </mxCell>
        <mxCell id="IUDxcDOe4H3WORA1nVKD-61" value="-getStudents(scanner: Scanner)" style="text;strokeColor=none;fillColor=none;align=left;verticalAlign=top;spacingLeft=4;spacingRight=4;overflow=hidden;rotatable=0;points=[[0,0.5],[1,0.5]];portConstraint=eastwest;fontStyle=4" parent="IUDxcDOe4H3WORA1nVKD-57" vertex="1">
          <mxGeometry y="146" width="390" height="26" as="geometry" />
        </mxCell>
        <mxCell id="IUDxcDOe4H3WORA1nVKD-65" value="+studentExamStatus(scanner: Scanner)" style="text;strokeColor=none;fillColor=none;align=left;verticalAlign=top;spacingLeft=4;spacingRight=4;overflow=hidden;rotatable=0;points=[[0,0.5],[1,0.5]];portConstraint=eastwest;fontStyle=4" parent="IUDxcDOe4H3WORA1nVKD-57" vertex="1">
          <mxGeometry y="172" width="390" height="26" as="geometry" />
        </mxCell>
        <mxCell id="IUDxcDOe4H3WORA1nVKD-66" value="+studentExamPassed(scanner: Scanner)" style="text;strokeColor=none;fillColor=none;align=left;verticalAlign=top;spacingLeft=4;spacingRight=4;overflow=hidden;rotatable=0;points=[[0,0.5],[1,0.5]];portConstraint=eastwest;fontStyle=4" parent="IUDxcDOe4H3WORA1nVKD-57" vertex="1">
          <mxGeometry y="198" width="390" height="26" as="geometry" />
        </mxCell>
        <mxCell id="IUDxcDOe4H3WORA1nVKD-64" value="+startExams(scanner: Scanner)" style="text;strokeColor=none;fillColor=none;align=left;verticalAlign=top;spacingLeft=4;spacingRight=4;overflow=hidden;rotatable=0;points=[[0,0.5],[1,0.5]];portConstraint=eastwest;fontStyle=4" parent="IUDxcDOe4H3WORA1nVKD-57" vertex="1">
          <mxGeometry y="224" width="390" height="26" as="geometry" />
        </mxCell>
        <mxCell id="OVTsEQFIvY51fF4gTyis-30" value="-studentGegevensAanwezig(student: Student, scanner: Scanner)" style="text;strokeColor=none;fillColor=none;align=left;verticalAlign=middle;spacingLeft=4;spacingRight=4;overflow=hidden;points=[[0,0.5],[1,0.5]];portConstraint=eastwest;rotatable=0;fontStyle=4" parent="IUDxcDOe4H3WORA1nVKD-57" vertex="1">
          <mxGeometry y="250" width="390" height="30" as="geometry" />
        </mxCell>
        <mxCell id="t63DMM5R3EJgXKr6WPt3-8" value="+studentGegevensAfwezig(scanner: Scanner)" style="text;strokeColor=none;fillColor=none;align=left;verticalAlign=middle;spacingLeft=4;spacingRight=4;overflow=hidden;points=[[0,0.5],[1,0.5]];portConstraint=eastwest;rotatable=0;fontStyle=4" parent="IUDxcDOe4H3WORA1nVKD-57" vertex="1">
          <mxGeometry y="280" width="390" height="30" as="geometry" />
        </mxCell>
        <mxCell id="OVTsEQFIvY51fF4gTyis-22" value="-studentGegevensAfwezigMessage()" style="text;strokeColor=none;fillColor=none;align=left;verticalAlign=middle;spacingLeft=4;spacingRight=4;overflow=hidden;points=[[0,0.5],[1,0.5]];portConstraint=eastwest;rotatable=0;fontStyle=4" parent="IUDxcDOe4H3WORA1nVKD-57" vertex="1">
          <mxGeometry y="310" width="390" height="30" as="geometry" />
        </mxCell>
        <mxCell id="wdkMRcKlB4A3LhLKudHC-1" value="-pauseMenu(scanner: Scanner)" style="text;strokeColor=none;fillColor=none;align=left;verticalAlign=middle;spacingLeft=4;spacingRight=4;overflow=hidden;points=[[0,0.5],[1,0.5]];portConstraint=eastwest;rotatable=0;fontStyle=4" parent="IUDxcDOe4H3WORA1nVKD-57" vertex="1">
          <mxGeometry y="340" width="390" height="30" as="geometry" />
        </mxCell>
        <mxCell id="t63DMM5R3EJgXKr6WPt3-7" value="-askStudentNumber(scanner: Scanner)" style="text;strokeColor=none;fillColor=none;align=left;verticalAlign=middle;spacingLeft=4;spacingRight=4;overflow=hidden;points=[[0,0.5],[1,0.5]];portConstraint=eastwest;rotatable=0;fontStyle=4" parent="IUDxcDOe4H3WORA1nVKD-57" vertex="1">
          <mxGeometry y="370" width="390" height="30" as="geometry" />
        </mxCell>
        <mxCell id="IUDxcDOe4H3WORA1nVKD-68" value="Question" style="swimlane;fontStyle=1;align=center;verticalAlign=top;childLayout=stackLayout;horizontal=1;startSize=26;horizontalStack=0;resizeParent=1;resizeParentMax=0;resizeLast=0;collapsible=1;marginBottom=0;" parent="1" vertex="1">
          <mxGeometry x="1085" y="510" width="225.5" height="198" as="geometry" />
        </mxCell>
        <mxCell id="OVTsEQFIvY51fF4gTyis-34" value="+questionContents: ArrayList&lt;String&gt;" style="text;strokeColor=none;fillColor=none;align=left;verticalAlign=top;spacingLeft=4;spacingRight=4;overflow=hidden;rotatable=0;points=[[0,0.5],[1,0.5]];portConstraint=eastwest;" parent="IUDxcDOe4H3WORA1nVKD-68" vertex="1">
          <mxGeometry y="26" width="225.5" height="26" as="geometry" />
        </mxCell>
        <mxCell id="TGH6b3mpJaEDLgJUW0cQ-15" value="+questionPrompt: String" style="text;strokeColor=none;fillColor=none;align=left;verticalAlign=top;spacingLeft=4;spacingRight=4;overflow=hidden;rotatable=0;points=[[0,0.5],[1,0.5]];portConstraint=eastwest;" parent="IUDxcDOe4H3WORA1nVKD-68" vertex="1">
          <mxGeometry y="52" width="225.5" height="26" as="geometry" />
        </mxCell>
        <mxCell id="IUDxcDOe4H3WORA1nVKD-70" value="" style="line;strokeWidth=1;fillColor=none;align=left;verticalAlign=middle;spacingTop=-1;spacingLeft=3;spacingRight=3;rotatable=0;labelPosition=right;points=[];portConstraint=eastwest;" parent="IUDxcDOe4H3WORA1nVKD-68" vertex="1">
          <mxGeometry y="78" width="225.5" height="8" as="geometry" />
        </mxCell>
        <mxCell id="OVTsEQFIvY51fF4gTyis-35" value="+Question(contents: ArrayList&lt;String&gt;)" style="text;strokeColor=none;fillColor=none;align=left;verticalAlign=middle;spacingLeft=4;spacingRight=4;overflow=hidden;points=[[0,0.5],[1,0.5]];portConstraint=eastwest;rotatable=0;" parent="IUDxcDOe4H3WORA1nVKD-68" vertex="1">
          <mxGeometry y="86" width="225.5" height="30" as="geometry" />
        </mxCell>
        <mxCell id="IUDxcDOe4H3WORA1nVKD-71" value="+askQuestion(): ArrayList&lt;String&gt;" style="text;strokeColor=none;fillColor=none;align=left;verticalAlign=top;spacingLeft=4;spacingRight=4;overflow=hidden;rotatable=0;points=[[0,0.5],[1,0.5]];portConstraint=eastwest;" parent="IUDxcDOe4H3WORA1nVKD-68" vertex="1">
          <mxGeometry y="116" width="225.5" height="26" as="geometry" />
        </mxCell>
        <mxCell id="IUDxcDOe4H3WORA1nVKD-72" value="+checkAnswer(input: String): boolean&#xa;" style="text;strokeColor=none;fillColor=none;align=left;verticalAlign=top;spacingLeft=4;spacingRight=4;overflow=hidden;rotatable=0;points=[[0,0.5],[1,0.5]];portConstraint=eastwest;" parent="IUDxcDOe4H3WORA1nVKD-68" vertex="1">
          <mxGeometry y="142" width="225.5" height="26" as="geometry" />
        </mxCell>
        <mxCell id="AXEN0CSOGZSYDrK3y6RF-20" value="+contentsInString(): String" style="text;strokeColor=none;fillColor=none;align=left;verticalAlign=middle;spacingLeft=4;spacingRight=4;overflow=hidden;points=[[0,0.5],[1,0.5]];portConstraint=eastwest;rotatable=0;" parent="IUDxcDOe4H3WORA1nVKD-68" vertex="1">
          <mxGeometry y="168" width="225.5" height="30" as="geometry" />
        </mxCell>
        <mxCell id="OVTsEQFIvY51fF4gTyis-11" value="SaveManager" style="swimlane;fontStyle=1;align=center;verticalAlign=top;childLayout=stackLayout;horizontal=1;startSize=26;horizontalStack=0;resizeParent=1;resizeParentMax=0;resizeLast=0;collapsible=1;marginBottom=0;" parent="1" vertex="1">
          <mxGeometry x="11" y="-320" width="370" height="244" as="geometry" />
        </mxCell>
        <mxCell id="OVTsEQFIvY51fF4gTyis-13" value="" style="line;strokeWidth=1;fillColor=none;align=left;verticalAlign=middle;spacingTop=-1;spacingLeft=3;spacingRight=3;rotatable=0;labelPosition=right;points=[];portConstraint=eastwest;" parent="OVTsEQFIvY51fF4gTyis-11" vertex="1">
          <mxGeometry y="26" width="370" height="8" as="geometry" />
        </mxCell>
        <mxCell id="mnI4cKnaA1jsV2370rRQ-1" value="-SaveManager()" style="text;strokeColor=none;fillColor=none;align=left;verticalAlign=middle;spacingLeft=4;spacingRight=4;overflow=hidden;points=[[0,0.5],[1,0.5]];portConstraint=eastwest;rotatable=0;" vertex="1" parent="OVTsEQFIvY51fF4gTyis-11">
          <mxGeometry y="34" width="370" height="30" as="geometry" />
        </mxCell>
        <mxCell id="AXEN0CSOGZSYDrK3y6RF-21" value="+readFile(filename: String, silent: boolean): ArrayList&lt;String&gt;" style="text;strokeColor=none;fillColor=none;align=left;verticalAlign=middle;spacingLeft=4;spacingRight=4;overflow=hidden;points=[[0,0.5],[1,0.5]];portConstraint=eastwest;rotatable=0;fontStyle=4" parent="OVTsEQFIvY51fF4gTyis-11" vertex="1">
          <mxGeometry y="64" width="370" height="30" as="geometry" />
        </mxCell>
        <mxCell id="OVTsEQFIvY51fF4gTyis-21" value="+cleanFile(savefile: File, makefile: boolean): boolean" style="text;strokeColor=none;fillColor=none;align=left;verticalAlign=middle;spacingLeft=4;spacingRight=4;overflow=hidden;points=[[0,0.5],[1,0.5]];portConstraint=eastwest;rotatable=0;fontStyle=4" parent="OVTsEQFIvY51fF4gTyis-11" vertex="1">
          <mxGeometry y="94" width="370" height="30" as="geometry" />
        </mxCell>
        <mxCell id="AXEN0CSOGZSYDrK3y6RF-22" value="+isFileValid(fileName: string): boolean" style="text;strokeColor=none;fillColor=none;align=left;verticalAlign=middle;spacingLeft=4;spacingRight=4;overflow=hidden;points=[[0,0.5],[1,0.5]];portConstraint=eastwest;rotatable=0;fontStyle=4" parent="OVTsEQFIvY51fF4gTyis-11" vertex="1">
          <mxGeometry y="124" width="370" height="30" as="geometry" />
        </mxCell>
        <mxCell id="AXEN0CSOGZSYDrK3y6RF-23" value="+findSaveFiles(): ArrayList&lt;String&gt;" style="text;strokeColor=none;fillColor=none;align=left;verticalAlign=middle;spacingLeft=4;spacingRight=4;overflow=hidden;points=[[0,0.5],[1,0.5]];portConstraint=eastwest;rotatable=0;fontStyle=4" parent="OVTsEQFIvY51fF4gTyis-11" vertex="1">
          <mxGeometry y="154" width="370" height="30" as="geometry" />
        </mxCell>
        <mxCell id="AXEN0CSOGZSYDrK3y6RF-24" value="+loadSaveFile(fileName: string, debugmode: boolean)" style="text;strokeColor=none;fillColor=none;align=left;verticalAlign=middle;spacingLeft=4;spacingRight=4;overflow=hidden;points=[[0,0.5],[1,0.5]];portConstraint=eastwest;rotatable=0;fontStyle=4" parent="OVTsEQFIvY51fF4gTyis-11" vertex="1">
          <mxGeometry y="184" width="370" height="30" as="geometry" />
        </mxCell>
        <mxCell id="AXEN0CSOGZSYDrK3y6RF-27" value="+exitSave()" style="text;strokeColor=none;fillColor=none;align=left;verticalAlign=middle;spacingLeft=4;spacingRight=4;overflow=hidden;points=[[0,0.5],[1,0.5]];portConstraint=eastwest;rotatable=0;fontStyle=4" parent="OVTsEQFIvY51fF4gTyis-11" vertex="1">
          <mxGeometry y="214" width="370" height="30" as="geometry" />
        </mxCell>
        <mxCell id="AXEN0CSOGZSYDrK3y6RF-7" value="Init" style="swimlane;fontStyle=3;align=center;verticalAlign=top;childLayout=stackLayout;horizontal=1;startSize=26;horizontalStack=0;resizeParent=1;resizeParentMax=0;resizeLast=0;collapsible=1;marginBottom=0;" parent="1" vertex="1">
          <mxGeometry x="499" y="-290" width="211" height="90" as="geometry" />
        </mxCell>
        <mxCell id="AXEN0CSOGZSYDrK3y6RF-8" value="+dir: String" style="text;strokeColor=none;fillColor=none;align=left;verticalAlign=top;spacingLeft=4;spacingRight=4;overflow=hidden;rotatable=0;points=[[0,0.5],[1,0.5]];portConstraint=eastwest;fontStyle=4" parent="AXEN0CSOGZSYDrK3y6RF-7" vertex="1">
          <mxGeometry y="26" width="211" height="26" as="geometry" />
        </mxCell>
        <mxCell id="AXEN0CSOGZSYDrK3y6RF-10" value="" style="line;strokeWidth=1;fillColor=none;align=left;verticalAlign=middle;spacingTop=-1;spacingLeft=3;spacingRight=3;rotatable=0;labelPosition=right;points=[];portConstraint=eastwest;" parent="AXEN0CSOGZSYDrK3y6RF-7" vertex="1">
          <mxGeometry y="52" width="211" height="8" as="geometry" />
        </mxCell>
        <mxCell id="AXEN0CSOGZSYDrK3y6RF-11" value="+init(debugMode: boolean)" style="text;strokeColor=none;fillColor=none;align=left;verticalAlign=middle;spacingLeft=4;spacingRight=4;overflow=hidden;points=[[0,0.5],[1,0.5]];portConstraint=eastwest;rotatable=0;fontStyle=4" parent="AXEN0CSOGZSYDrK3y6RF-7" vertex="1">
          <mxGeometry y="60" width="211" height="30" as="geometry" />
        </mxCell>
        <mxCell id="t63DMM5R3EJgXKr6WPt3-1" value="Debug" style="swimlane;fontStyle=1;align=center;verticalAlign=top;childLayout=stackLayout;horizontal=1;startSize=26;horizontalStack=0;resizeParent=1;resizeParentMax=0;resizeLast=0;collapsible=1;marginBottom=0;" parent="1" vertex="1">
          <mxGeometry x="830" y="-290" width="210" height="150" as="geometry" />
        </mxCell>
        <mxCell id="t63DMM5R3EJgXKr6WPt3-3" value="" style="line;strokeWidth=1;fillColor=none;align=left;verticalAlign=middle;spacingTop=-1;spacingLeft=3;spacingRight=3;rotatable=0;labelPosition=right;points=[];portConstraint=eastwest;" parent="t63DMM5R3EJgXKr6WPt3-1" vertex="1">
          <mxGeometry y="26" width="210" height="8" as="geometry" />
        </mxCell>
        <mxCell id="t63DMM5R3EJgXKr6WPt3-4" value="+ DebugSet (scanner : Scanner)" style="text;strokeColor=none;fillColor=none;align=left;verticalAlign=top;spacingLeft=4;spacingRight=4;overflow=hidden;rotatable=0;points=[[0,0.5],[1,0.5]];portConstraint=eastwest;fontStyle=4" parent="t63DMM5R3EJgXKr6WPt3-1" vertex="1">
          <mxGeometry y="34" width="210" height="26" as="geometry" />
        </mxCell>
        <mxCell id="t63DMM5R3EJgXKr6WPt3-5" value="+ printQuestions()" style="text;strokeColor=none;fillColor=none;align=left;verticalAlign=middle;spacingLeft=4;spacingRight=4;overflow=hidden;points=[[0,0.5],[1,0.5]];portConstraint=eastwest;rotatable=0;fontStyle=4" parent="t63DMM5R3EJgXKr6WPt3-1" vertex="1">
          <mxGeometry y="60" width="210" height="30" as="geometry" />
        </mxCell>
        <mxCell id="t63DMM5R3EJgXKr6WPt3-6" value="+ checkLoaded()" style="text;strokeColor=none;fillColor=none;align=left;verticalAlign=middle;spacingLeft=4;spacingRight=4;overflow=hidden;points=[[0,0.5],[1,0.5]];portConstraint=eastwest;rotatable=0;" parent="t63DMM5R3EJgXKr6WPt3-1" vertex="1">
          <mxGeometry y="90" width="210" height="30" as="geometry" />
        </mxCell>
        <mxCell id="TGH6b3mpJaEDLgJUW0cQ-3" value="+ wait(seconds: int)" style="text;strokeColor=none;fillColor=none;align=left;verticalAlign=middle;spacingLeft=4;spacingRight=4;overflow=hidden;points=[[0,0.5],[1,0.5]];portConstraint=eastwest;rotatable=0;fontStyle=4" parent="t63DMM5R3EJgXKr6WPt3-1" vertex="1">
          <mxGeometry y="120" width="210" height="30" as="geometry" />
        </mxCell>
        <mxCell id="t63DMM5R3EJgXKr6WPt3-13" value="ExamManager" style="swimlane;fontStyle=1;align=center;verticalAlign=top;childLayout=stackLayout;horizontal=1;startSize=26;horizontalStack=0;resizeParent=1;resizeParentMax=0;resizeLast=0;collapsible=1;marginBottom=0;" parent="1" vertex="1">
          <mxGeometry y="527" width="392" height="294" as="geometry" />
        </mxCell>
        <mxCell id="t63DMM5R3EJgXKr6WPt3-15" value="" style="line;strokeWidth=1;fillColor=none;align=left;verticalAlign=middle;spacingTop=-1;spacingLeft=3;spacingRight=3;rotatable=0;labelPosition=right;points=[];portConstraint=eastwest;" parent="t63DMM5R3EJgXKr6WPt3-13" vertex="1">
          <mxGeometry y="26" width="392" height="8" as="geometry" />
        </mxCell>
        <mxCell id="t63DMM5R3EJgXKr6WPt3-16" value="+ exManagerMenu(scanner: Scanner)" style="text;strokeColor=none;fillColor=none;align=left;verticalAlign=top;spacingLeft=4;spacingRight=4;overflow=hidden;rotatable=0;points=[[0,0.5],[1,0.5]];portConstraint=eastwest;fontStyle=4" parent="t63DMM5R3EJgXKr6WPt3-13" vertex="1">
          <mxGeometry y="34" width="392" height="26" as="geometry" />
        </mxCell>
        <mxCell id="TGH6b3mpJaEDLgJUW0cQ-5" value="+ printExManagerMenu()" style="text;strokeColor=none;fillColor=none;align=left;verticalAlign=top;spacingLeft=4;spacingRight=4;overflow=hidden;rotatable=0;points=[[0,0.5],[1,0.5]];portConstraint=eastwest;fontStyle=4" parent="t63DMM5R3EJgXKr6WPt3-13" vertex="1">
          <mxGeometry y="60" width="392" height="26" as="geometry" />
        </mxCell>
        <mxCell id="TGH6b3mpJaEDLgJUW0cQ-6" value="+ exNewExam(scanner: Scanner)" style="text;strokeColor=none;fillColor=none;align=left;verticalAlign=top;spacingLeft=4;spacingRight=4;overflow=hidden;rotatable=0;points=[[0,0.5],[1,0.5]];portConstraint=eastwest;fontStyle=4" parent="t63DMM5R3EJgXKr6WPt3-13" vertex="1">
          <mxGeometry y="86" width="392" height="26" as="geometry" />
        </mxCell>
        <mxCell id="TGH6b3mpJaEDLgJUW0cQ-7" value="+ exRemoveExam(scanner: Scanner)" style="text;strokeColor=none;fillColor=none;align=left;verticalAlign=top;spacingLeft=4;spacingRight=4;overflow=hidden;rotatable=0;points=[[0,0.5],[1,0.5]];portConstraint=eastwest;fontStyle=4" parent="t63DMM5R3EJgXKr6WPt3-13" vertex="1">
          <mxGeometry y="112" width="392" height="26" as="geometry" />
        </mxCell>
        <mxCell id="TGH6b3mpJaEDLgJUW0cQ-8" value="+ exEditExam(scanner: Scanner)" style="text;strokeColor=none;fillColor=none;align=left;verticalAlign=top;spacingLeft=4;spacingRight=4;overflow=hidden;rotatable=0;points=[[0,0.5],[1,0.5]];portConstraint=eastwest;fontStyle=4" parent="t63DMM5R3EJgXKr6WPt3-13" vertex="1">
          <mxGeometry y="138" width="392" height="26" as="geometry" />
        </mxCell>
        <mxCell id="TGH6b3mpJaEDLgJUW0cQ-9" value="+ exAddQuestion(exam: Exam, scanner: Scanner)" style="text;strokeColor=none;fillColor=none;align=left;verticalAlign=top;spacingLeft=4;spacingRight=4;overflow=hidden;rotatable=0;points=[[0,0.5],[1,0.5]];portConstraint=eastwest;fontStyle=4" parent="t63DMM5R3EJgXKr6WPt3-13" vertex="1">
          <mxGeometry y="164" width="392" height="26" as="geometry" />
        </mxCell>
        <mxCell id="TGH6b3mpJaEDLgJUW0cQ-10" value="+ exRemoveQuestion(exActualExam: Exam, scanner: Scanner)" style="text;strokeColor=none;fillColor=none;align=left;verticalAlign=top;spacingLeft=4;spacingRight=4;overflow=hidden;rotatable=0;points=[[0,0.5],[1,0.5]];portConstraint=eastwest;fontStyle=4" parent="t63DMM5R3EJgXKr6WPt3-13" vertex="1">
          <mxGeometry y="190" width="392" height="26" as="geometry" />
        </mxCell>
        <mxCell id="TGH6b3mpJaEDLgJUW0cQ-12" value="+ exChooseExamIndex(scanner: Scanner, exit: boolean): int" style="text;strokeColor=none;fillColor=none;align=left;verticalAlign=top;spacingLeft=4;spacingRight=4;overflow=hidden;rotatable=0;points=[[0,0.5],[1,0.5]];portConstraint=eastwest;fontStyle=4" parent="t63DMM5R3EJgXKr6WPt3-13" vertex="1">
          <mxGeometry y="216" width="392" height="26" as="geometry" />
        </mxCell>
        <mxCell id="TGH6b3mpJaEDLgJUW0cQ-13" value="+ exGetQuestCont(scanner: Scanner): ArrayList&lt;String&gt;" style="text;strokeColor=none;fillColor=none;align=left;verticalAlign=top;spacingLeft=4;spacingRight=4;overflow=hidden;rotatable=0;points=[[0,0.5],[1,0.5]];portConstraint=eastwest;fontStyle=4" parent="t63DMM5R3EJgXKr6WPt3-13" vertex="1">
          <mxGeometry y="242" width="392" height="26" as="geometry" />
        </mxCell>
        <mxCell id="TGH6b3mpJaEDLgJUW0cQ-14" value="+ exPrintQuestArray(contents: ArrayList&lt;String&gt;, numbered: boolean)" style="text;strokeColor=none;fillColor=none;align=left;verticalAlign=top;spacingLeft=4;spacingRight=4;overflow=hidden;rotatable=0;points=[[0,0.5],[1,0.5]];portConstraint=eastwest;fontStyle=4" parent="t63DMM5R3EJgXKr6WPt3-13" vertex="1">
          <mxGeometry y="268" width="392" height="26" as="geometry" />
        </mxCell>
        <mxCell id="TGH6b3mpJaEDLgJUW0cQ-16" value="" style="endArrow=diamondThin;endFill=1;endSize=24;html=1;rounded=0;entryX=1;entryY=0.25;entryDx=0;entryDy=0;exitX=0;exitY=0.5;exitDx=0;exitDy=0;" parent="1" source="TGH6b3mpJaEDLgJUW0cQ-15" target="IUDxcDOe4H3WORA1nVKD-51" edge="1">
          <mxGeometry width="160" relative="1" as="geometry">
            <mxPoint x="1050" y="592" as="sourcePoint" />
            <mxPoint x="760" y="480" as="targetPoint" />
          </mxGeometry>
        </mxCell>
        <mxCell id="TGH6b3mpJaEDLgJUW0cQ-17" value="contains" style="text;html=1;align=center;verticalAlign=middle;resizable=0;points=[];autosize=1;strokeColor=none;fillColor=none;" parent="1" vertex="1">
          <mxGeometry x="960" y="540" width="60" height="20" as="geometry" />
        </mxCell>
        <mxCell id="TGH6b3mpJaEDLgJUW0cQ-18" value="1..*" style="text;html=1;align=center;verticalAlign=middle;resizable=0;points=[];autosize=1;strokeColor=none;fillColor=none;" parent="1" vertex="1">
          <mxGeometry x="1055" y="540" width="30" height="20" as="geometry" />
        </mxCell>
        <mxCell id="TGH6b3mpJaEDLgJUW0cQ-19" value="1" style="text;html=1;align=center;verticalAlign=middle;resizable=0;points=[];autosize=1;strokeColor=none;fillColor=none;" parent="1" vertex="1">
          <mxGeometry x="930" y="537" width="20" height="20" as="geometry" />
        </mxCell>
        <mxCell id="TGH6b3mpJaEDLgJUW0cQ-23" value="" style="endArrow=none;html=1;edgeStyle=orthogonalEdgeStyle;rounded=0;" parent="1" source="t63DMM5R3EJgXKr6WPt3-13" target="IUDxcDOe4H3WORA1nVKD-51" edge="1">
          <mxGeometry relative="1" as="geometry">
            <mxPoint x="370" y="440" as="sourcePoint" />
            <mxPoint x="530" y="440" as="targetPoint" />
          </mxGeometry>
        </mxCell>
        <mxCell id="TGH6b3mpJaEDLgJUW0cQ-26" value="manages" style="text;html=1;align=center;verticalAlign=middle;resizable=0;points=[];autosize=1;strokeColor=none;fillColor=none;" parent="1" vertex="1">
          <mxGeometry x="450" y="650" width="70" height="20" as="geometry" />
        </mxCell>
        <mxCell id="TGH6b3mpJaEDLgJUW0cQ-27" value="0..*" style="text;html=1;align=center;verticalAlign=middle;resizable=0;points=[];autosize=1;strokeColor=none;fillColor=none;" parent="1" vertex="1">
          <mxGeometry x="390" y="650" width="30" height="20" as="geometry" />
        </mxCell>
        <mxCell id="TGH6b3mpJaEDLgJUW0cQ-28" value="1" style="text;html=1;align=center;verticalAlign=middle;resizable=0;points=[];autosize=1;strokeColor=none;fillColor=none;" parent="1" vertex="1">
          <mxGeometry x="540" y="650" width="20" height="20" as="geometry" />
        </mxCell>
        <mxCell id="TGH6b3mpJaEDLgJUW0cQ-29" value="" style="endArrow=none;html=1;edgeStyle=orthogonalEdgeStyle;rounded=0;" parent="1" source="IUDxcDOe4H3WORA1nVKD-57" target="t63DMM5R3EJgXKr6WPt3-13" edge="1">
          <mxGeometry relative="1" as="geometry">
            <mxPoint x="370" y="410" as="sourcePoint" />
            <mxPoint x="565" y="410" as="targetPoint" />
          </mxGeometry>
        </mxCell>
        <mxCell id="TGH6b3mpJaEDLgJUW0cQ-30" value="" style="endArrow=none;html=1;edgeStyle=orthogonalEdgeStyle;rounded=0;" parent="1" source="IUDxcDOe4H3WORA1nVKD-57" target="IUDxcDOe4H3WORA1nVKD-45" edge="1">
          <mxGeometry relative="1" as="geometry">
            <mxPoint x="352" y="450" as="sourcePoint" />
            <mxPoint x="540" y="450" as="targetPoint" />
          </mxGeometry>
        </mxCell>
        <mxCell id="TGH6b3mpJaEDLgJUW0cQ-31" value="" style="endArrow=none;html=1;edgeStyle=orthogonalEdgeStyle;rounded=0;" parent="1" source="IUDxcDOe4H3WORA1nVKD-57" target="IUDxcDOe4H3WORA1nVKD-51" edge="1">
          <mxGeometry relative="1" as="geometry">
            <mxPoint x="411.5" y="450" as="sourcePoint" />
            <mxPoint x="580" y="450" as="targetPoint" />
            <Array as="points">
              <mxPoint x="490" y="370" />
              <mxPoint x="490" y="480" />
            </Array>
          </mxGeometry>
        </mxCell>
        <mxCell id="TGH6b3mpJaEDLgJUW0cQ-32" value="calls" style="text;html=1;align=center;verticalAlign=middle;resizable=0;points=[];autosize=1;strokeColor=none;fillColor=none;" parent="1" vertex="1">
          <mxGeometry x="200" y="430" width="40" height="20" as="geometry" />
        </mxCell>
        <mxCell id="TGH6b3mpJaEDLgJUW0cQ-33" value="1" style="text;html=1;align=center;verticalAlign=middle;resizable=0;points=[];autosize=1;strokeColor=none;fillColor=none;" parent="1" vertex="1">
          <mxGeometry x="200" y="500" width="20" height="20" as="geometry" />
        </mxCell>
        <mxCell id="TGH6b3mpJaEDLgJUW0cQ-34" value="1" style="text;html=1;align=center;verticalAlign=middle;resizable=0;points=[];autosize=1;strokeColor=none;fillColor=none;" parent="1" vertex="1">
          <mxGeometry x="200" y="380" width="20" height="20" as="geometry" />
        </mxCell>
        <mxCell id="TGH6b3mpJaEDLgJUW0cQ-35" value="calls" style="text;html=1;align=center;verticalAlign=middle;resizable=0;points=[];autosize=1;strokeColor=none;fillColor=none;" parent="1" vertex="1">
          <mxGeometry x="490" y="350" width="40" height="20" as="geometry" />
        </mxCell>
        <mxCell id="TGH6b3mpJaEDLgJUW0cQ-36" value="calls" style="text;html=1;align=center;verticalAlign=middle;resizable=0;points=[];autosize=1;strokeColor=none;fillColor=none;" parent="1" vertex="1">
          <mxGeometry x="459" y="160" width="40" height="20" as="geometry" />
        </mxCell>
        <mxCell id="TGH6b3mpJaEDLgJUW0cQ-37" value="0..*" style="text;html=1;align=center;verticalAlign=middle;resizable=0;points=[];autosize=1;strokeColor=none;fillColor=none;" parent="1" vertex="1">
          <mxGeometry x="545" y="450" width="30" height="20" as="geometry" />
        </mxCell>
        <mxCell id="TGH6b3mpJaEDLgJUW0cQ-38" value="0..1" style="text;html=1;align=center;verticalAlign=middle;resizable=0;points=[];autosize=1;strokeColor=none;fillColor=none;" parent="1" vertex="1">
          <mxGeometry x="392" y="340" width="40" height="20" as="geometry" />
        </mxCell>
        <mxCell id="TGH6b3mpJaEDLgJUW0cQ-39" value="0..*" style="text;html=1;align=center;verticalAlign=middle;resizable=0;points=[];autosize=1;strokeColor=none;fillColor=none;" parent="1" vertex="1">
          <mxGeometry x="520" y="160" width="30" height="20" as="geometry" />
        </mxCell>
        <mxCell id="TGH6b3mpJaEDLgJUW0cQ-40" value="0..1" style="text;html=1;align=center;verticalAlign=middle;resizable=0;points=[];autosize=1;strokeColor=none;fillColor=none;" parent="1" vertex="1">
          <mxGeometry x="390" y="160" width="40" height="20" as="geometry" />
        </mxCell>
        <mxCell id="TGH6b3mpJaEDLgJUW0cQ-41" value="" style="endArrow=none;html=1;edgeStyle=orthogonalEdgeStyle;rounded=0;" parent="1" source="IUDxcDOe4H3WORA1nVKD-45" target="IUDxcDOe4H3WORA1nVKD-51" edge="1">
          <mxGeometry relative="1" as="geometry">
            <mxPoint x="1100" y="130" as="sourcePoint" />
            <mxPoint x="1268.5" y="130" as="targetPoint" />
          </mxGeometry>
        </mxCell>
        <mxCell id="TGH6b3mpJaEDLgJUW0cQ-42" value="takes" style="text;html=1;align=center;verticalAlign=middle;resizable=0;points=[];autosize=1;strokeColor=none;fillColor=none;" parent="1" vertex="1">
          <mxGeometry x="745" y="410" width="50" height="20" as="geometry" />
        </mxCell>
        <mxCell id="TGH6b3mpJaEDLgJUW0cQ-43" value="0..*" style="text;html=1;align=center;verticalAlign=middle;resizable=0;points=[];autosize=1;strokeColor=none;fillColor=none;" parent="1" vertex="1">
          <mxGeometry x="755" y="380" width="30" height="20" as="geometry" />
        </mxCell>
        <mxCell id="TGH6b3mpJaEDLgJUW0cQ-44" value="0..*" style="text;html=1;align=center;verticalAlign=middle;resizable=0;points=[];autosize=1;strokeColor=none;fillColor=none;" parent="1" vertex="1">
          <mxGeometry x="755" y="450" width="30" height="20" as="geometry" />
        </mxCell>
        <mxCell id="TGH6b3mpJaEDLgJUW0cQ-45" value="" style="endArrow=none;html=1;edgeStyle=orthogonalEdgeStyle;rounded=0;" parent="1" source="IUDxcDOe4H3WORA1nVKD-57" target="AXEN0CSOGZSYDrK3y6RF-7" edge="1">
          <mxGeometry relative="1" as="geometry">
            <mxPoint x="440" y="-76" as="sourcePoint" />
            <mxPoint x="608.5" y="-76" as="targetPoint" />
            <Array as="points">
              <mxPoint x="520" y="30" />
            </Array>
          </mxGeometry>
        </mxCell>
        <mxCell id="TGH6b3mpJaEDLgJUW0cQ-46" value="calls" style="edgeLabel;html=1;align=center;verticalAlign=middle;resizable=0;points=[];" parent="TGH6b3mpJaEDLgJUW0cQ-45" vertex="1" connectable="0">
          <mxGeometry x="0.1941" relative="1" as="geometry">
            <mxPoint x="10" y="-25" as="offset" />
          </mxGeometry>
        </mxCell>
        <mxCell id="TGH6b3mpJaEDLgJUW0cQ-47" value="1" style="text;html=1;align=center;verticalAlign=middle;resizable=0;points=[];autosize=1;strokeColor=none;fillColor=none;" parent="1" vertex="1">
          <mxGeometry x="530" y="-200" width="20" height="20" as="geometry" />
        </mxCell>
        <mxCell id="TGH6b3mpJaEDLgJUW0cQ-48" value="1" style="text;html=1;align=center;verticalAlign=middle;resizable=0;points=[];autosize=1;strokeColor=none;fillColor=none;" parent="1" vertex="1">
          <mxGeometry x="400" y="10" width="20" height="20" as="geometry" />
        </mxCell>
        <mxCell id="TGH6b3mpJaEDLgJUW0cQ-49" value="" style="endArrow=none;html=1;edgeStyle=orthogonalEdgeStyle;rounded=0;" parent="1" source="IUDxcDOe4H3WORA1nVKD-57" target="OVTsEQFIvY51fF4gTyis-11" edge="1">
          <mxGeometry relative="1" as="geometry">
            <mxPoint x="400" y="40" as="sourcePoint" />
            <mxPoint x="530" y="-190" as="targetPoint" />
            <Array as="points">
              <mxPoint x="180" y="-70" />
              <mxPoint x="180" y="-70" />
            </Array>
          </mxGeometry>
        </mxCell>
        <mxCell id="TGH6b3mpJaEDLgJUW0cQ-50" value="calls" style="edgeLabel;html=1;align=center;verticalAlign=middle;resizable=0;points=[];" parent="TGH6b3mpJaEDLgJUW0cQ-49" vertex="1" connectable="0">
          <mxGeometry x="0.1941" relative="1" as="geometry">
            <mxPoint x="60" y="3" as="offset" />
          </mxGeometry>
        </mxCell>
        <mxCell id="TGH6b3mpJaEDLgJUW0cQ-51" value="1" style="text;html=1;align=center;verticalAlign=middle;resizable=0;points=[];autosize=1;strokeColor=none;fillColor=none;" parent="1" vertex="1">
          <mxGeometry x="179" y="-40" width="20" height="20" as="geometry" />
        </mxCell>
        <mxCell id="TGH6b3mpJaEDLgJUW0cQ-52" value="1" style="text;html=1;align=center;verticalAlign=middle;resizable=0;points=[];autosize=1;strokeColor=none;fillColor=none;" parent="1" vertex="1">
          <mxGeometry x="185" y="-76" width="20" height="20" as="geometry" />
        </mxCell>
        <mxCell id="TGH6b3mpJaEDLgJUW0cQ-56" value="" style="endArrow=classic;html=1;rounded=0;" parent="1" edge="1">
          <mxGeometry width="50" height="50" relative="1" as="geometry">
            <mxPoint x="220" y="-40" as="sourcePoint" />
            <mxPoint x="220" y="-60" as="targetPoint" />
          </mxGeometry>
        </mxCell>
        <mxCell id="TGH6b3mpJaEDLgJUW0cQ-58" value="" style="endArrow=classic;html=1;rounded=0;" parent="1" edge="1">
          <mxGeometry width="50" height="50" relative="1" as="geometry">
            <mxPoint x="550" y="-70" as="sourcePoint" />
            <mxPoint x="550" y="-100" as="targetPoint" />
          </mxGeometry>
        </mxCell>
        <mxCell id="TGH6b3mpJaEDLgJUW0cQ-59" value="" style="endArrow=none;html=1;edgeStyle=orthogonalEdgeStyle;rounded=0;" parent="1" source="AXEN0CSOGZSYDrK3y6RF-7" target="t63DMM5R3EJgXKr6WPt3-1" edge="1">
          <mxGeometry relative="1" as="geometry">
            <mxPoint x="1030" y="-75" as="sourcePoint" />
            <mxPoint x="1160" y="-305" as="targetPoint" />
            <Array as="points">
              <mxPoint x="810" y="-220" />
              <mxPoint x="810" y="-220" />
            </Array>
          </mxGeometry>
        </mxCell>
        <mxCell id="TGH6b3mpJaEDLgJUW0cQ-60" value="calls" style="edgeLabel;html=1;align=center;verticalAlign=middle;resizable=0;points=[];" parent="TGH6b3mpJaEDLgJUW0cQ-59" vertex="1" connectable="0">
          <mxGeometry x="0.1941" relative="1" as="geometry">
            <mxPoint x="-12" y="-14" as="offset" />
          </mxGeometry>
        </mxCell>
        <mxCell id="TGH6b3mpJaEDLgJUW0cQ-61" value="1" style="text;html=1;align=center;verticalAlign=middle;resizable=0;points=[];autosize=1;strokeColor=none;fillColor=none;" parent="1" vertex="1">
          <mxGeometry x="710" y="-240" width="20" height="20" as="geometry" />
        </mxCell>
        <mxCell id="TGH6b3mpJaEDLgJUW0cQ-62" value="1" style="text;html=1;align=center;verticalAlign=middle;resizable=0;points=[];autosize=1;strokeColor=none;fillColor=none;" parent="1" vertex="1">
          <mxGeometry x="810" y="-240" width="20" height="20" as="geometry" />
        </mxCell>
        <mxCell id="mnI4cKnaA1jsV2370rRQ-2" value="Andere pijl hier" style="text;html=1;align=center;verticalAlign=middle;resizable=0;points=[];autosize=1;strokeColor=none;fillColor=none;" vertex="1" parent="1">
          <mxGeometry x="560" y="-120" width="100" height="20" as="geometry" />
        </mxCell>
        <mxCell id="mnI4cKnaA1jsV2370rRQ-4" value="" style="endArrow=block;startArrow=block;endFill=1;startFill=1;html=1;rounded=0;" edge="1" parent="1">
          <mxGeometry width="160" relative="1" as="geometry">
            <mxPoint x="420" y="150" as="sourcePoint" />
            <mxPoint x="530" y="150" as="targetPoint" />
          </mxGeometry>
        </mxCell>
        <mxCell id="mnI4cKnaA1jsV2370rRQ-5" value="" style="endArrow=block;startArrow=block;endFill=1;startFill=1;html=1;rounded=0;" edge="1" parent="1">
          <mxGeometry width="160" relative="1" as="geometry">
            <mxPoint x="420" y="340" as="sourcePoint" />
            <mxPoint x="530" y="340" as="targetPoint" />
          </mxGeometry>
        </mxCell>
        <mxCell id="mnI4cKnaA1jsV2370rRQ-6" value="" style="endArrow=block;startArrow=block;endFill=1;startFill=1;html=1;rounded=0;" edge="1" parent="1">
          <mxGeometry width="160" relative="1" as="geometry">
            <mxPoint x="435" y="640" as="sourcePoint" />
            <mxPoint x="545" y="640" as="targetPoint" />
          </mxGeometry>
        </mxCell>
        <mxCell id="mnI4cKnaA1jsV2370rRQ-7" value="" style="endArrow=block;startArrow=block;endFill=1;startFill=1;html=1;rounded=0;" edge="1" parent="1">
          <mxGeometry width="160" relative="1" as="geometry">
            <mxPoint x="795" y="460" as="sourcePoint" />
            <mxPoint x="795" y="400" as="targetPoint" />
          </mxGeometry>
        </mxCell>
        <mxCell id="mnI4cKnaA1jsV2370rRQ-8" value="" style="endArrow=block;startArrow=block;endFill=1;startFill=1;html=1;rounded=0;" edge="1" parent="1">
          <mxGeometry width="160" relative="1" as="geometry">
            <mxPoint x="240" y="490" as="sourcePoint" />
            <mxPoint x="240" y="430" as="targetPoint" />
          </mxGeometry>
        </mxCell>
      </root>
    </mxGraphModel>
  </diagram>
</mxfile>
